<svg xmlns="http://www.w3.org/2000/svg" viewBox="0 0 502.572 92"><path d="M388.926 88.11l-4.354-3.891V7.78l4.354-3.89L393.281 0h100.224l4.534 4.533 4.533 4.534v73.866l-4.533 4.534L493.505 92H393.281zm56.484-20.865c6.209-3.21 8.322-8.847 7.829-27.202v-16.46l-5 .014-4.116-.015c0 33 0 31.675-2.82 35.23-2.262 2.989-8.94 2.979-12.064-.145-2.37-2.37-2.667-4.445-2.667-18.667V23.582h-9.333V40.58c0 9.119.585 18.119 1.3 20 2.948 7.755 17.691 11.412 26.87 6.665zM470.572 46V23.582h-9.333V68h9.333zm-438 30.073c-1.467-.6-3.736-2.281-5.043-3.735-2-2.225-16.278-31.854-25.06-52.005L0 14.667h19.409l9.989 22.996c6.105 14.054 10.77 23.41 12.06 23.394 1.277-.015 4.671-5.649 11.987-22.662l9.917-23.755 9.768.057c5.287.03 9.442-.074 9.442-.074S61.994 61.31 58.76 67.64c-1.584 3.102-4.645 6.552-6.802 7.667-4.168 2.155-14.95 2.582-19.386.767zM72.397 69c14.63-32.78 21.515-47.367 23.349-49.47 3.923-4.5 9.552-6.53 16.304-5.881 12.04 1.156 11.32.134 31.935 45.351l7.75 17h-18.54l-2.225-4.667-2.225-4.666H92.078l-1.688 4.666L88.703 76H69.272zm50.175-15.703c0-1.169-8.44-20.58-9.735-22.297-3.086-4.088-4.645-.706-14.059 22.294-.244.598 5.022.04 11.683.04 6.66 0 12.11-.037 12.11-.037zM162.7 74.314c-1.762-.906-4.44-3.31-5.95-5.344-2.49-3.356-2.794-6.031-3.288-29l-.08-25.281 8.363-.022h8.827V36.62c0 20.34.19 22.054 2.579 23.333 1.418.76 8.785 1.089 16.37 1.089 20.386 0 19.718 1.153 19.718-25.118V14.667h16v24.042c0 37.361.057 37.302-36.291 37.271-15.633-.013-24.073-.549-26.248-1.666zm77.62-.916c-6.011-3.666-7.065-8.99-7.074-35.731l-.01-23h17.333V37.19c0 19.309.301 22.64 2.11 23.333 1.16.445 11.96.81 24 .81h21.89V76l-27-.005c-24.39-.005-27.41-.256-31.251-2.597zm75.284-19.731l-.365-23h-27.334v-16h70.667v16h-26.667V76H315.97z"/></svg>