<svg class="prefix__width-auto prefix__height-12 prefix__fill-current prefix__text-gray-6" width="419.867" height="386.825" viewBox="0 0 111.09 102.347" xmlns="http://www.w3.org/2000/svg"><defs><linearGradient id="prefix__a"><stop offset="0" stop-color="#39395a"/><stop offset="1" stop-color="#39395a" stop-opacity=".952"/></linearGradient></defs><g transform="matrix(.207 0 0 .207 243.141 221.605)"><rect width="365.821" height="376.373" x="-238.268" y="-1366.425" ry="89.236" transform="scale(.98635 1.01346) rotate(-45)" fill="#0cf"/><rect style="font-variation-settings:'wght' 300" width="176.389" height="55.202" x="-1036.767" y="-832.289" ry="27.601" fill="#fff"/><rect width="365.821" height="376.373" x="-278.028" y="-1443.41" ry="89.236" transform="scale(.98635 1.01346) rotate(-45)" fill="none" stroke="#4d4d4d" stroke-width="21.171"/><rect style="font-variation-settings:'wght' 300" width="176.389" height="45.791" x="-1119.203" y="-854.259" ry="22.895" fill="none" stroke="#4d4d4d" stroke-width="21.167"/><rect width="365.821" height="376.373" x="-238.268" y="-1366.425" ry="89.236" transform="scale(.98635 1.01346) rotate(-45)" fill="#0cf"/><rect style="font-variation-settings:'wght' 300" width="176.389" height="55.202" x="-1036.767" y="-832.289" ry="27.601" fill="#fff"/><rect width="365.821" height="376.373" x="-278.028" y="-1443.41" ry="89.236" transform="scale(.98635 1.01346) rotate(-45)" fill="none" stroke="#4d4d4d" stroke-width="21.171"/><rect style="font-variation-settings:'wght' 300" width="176.389" height="45.791" x="-1119.203" y="-854.259" ry="22.895" fill="none" stroke="#4d4d4d" stroke-width="21.167"/></g></svg>