<svg height="512" viewBox="0 0 512 512" width="512" xmlns="http://www.w3.org/2000/svg" xmlns:xlink="http://www.w3.org/1999/xlink"><linearGradient id="a" gradientUnits="userSpaceOnUse" x1="7.917" x2="471.582" y1="504.083" y2="40.418" data-name="New Gradient Swatch 1"><stop offset="0" stop-color="#003f8a"/><stop offset=".518" stop-color="#00d7df"/><stop offset="1" stop-color="#006df0"/></linearGradient><linearGradient id="b" x1="-182.083" x2="281.582" xlink:href="#a" y1="314.083" y2="-149.582"/><linearGradient id="c" x1="-166.083" x2="297.582" xlink:href="#a" y1="330.083" y2="-133.582"/><linearGradient id="d" x1="-150.083" x2="313.582" xlink:href="#a" y1="346.083" y2="-117.582"/><linearGradient id="e" x1="15.917" x2="479.582" xlink:href="#a" y1="512.083" y2="48.418"/><linearGradient id="f" x1="-40.083" x2="423.582" xlink:href="#a" y1="456.083" y2="-7.582"/><linearGradient id="g" x1="71.917" x2="535.582" xlink:href="#a" y1="568.083" y2="104.418"/><g><path d="m496 56h-480a8 8 0 0 0 -8 8v384a8 8 0 0 0 8 8h480a8 8 0 0 0 8-8v-384a8 8 0 0 0 -8-8zm-8 384h-464v-320h464zm0-336h-464v-32h464z" fill="url(#a)"/><path d="m40 96h8a8 8 0 0 0 0-16h-8a8 8 0 0 0 0 16z" fill="url(#b)"/><path d="m72 96h8a8 8 0 0 0 0-16h-8a8 8 0 0 0 0 16z" fill="url(#c)"/><path d="m104 96h8a8 8 0 0 0 0-16h-8a8 8 0 0 0 0 16z" fill="url(#d)"/><path d="m296 208h-80a8 8 0 0 0 -8 8v112a8 8 0 0 0 8 8h80a8 8 0 0 0 8-8v-112a8 8 0 0 0 -8-8zm-8 112h-64v-96h64z" fill="url(#e)"/><path d="m192 216v112a8 8 0 0 1 -16 0v-48h-72a8 8 0 0 1 -8-8v-56a8 8 0 0 1 16 0v48h64v-48a8 8 0 0 1 16 0z" fill="url(#f)"/><path d="m416 216v112a8 8 0 0 1 -16 0v-48h-72a8 8 0 0 1 -8-8v-56a8 8 0 0 1 16 0v48h64v-48a8 8 0 0 1 16 0z" fill="url(#g)"/></g></svg>