<svg class="fill-current text-gray-7" xmlns="http://www.w3.org/2000/svg" viewBox="0 0 146.8 46.8"><path d="M8.8 38.6c-.1-.1-.2-.2-.2-.3-2.3-4.2-4.6-8.4-6.9-12.5-.9-1.6-.9-3.2 0-4.8 3.2-5.7 6.4-11.4 9.6-17 1-1.8 2.7-2.5 4.7-2.5h1.9c1.7 0 2.6.9 2.6 2.6v11c0 3.5.1 2.5-1.4 5.2-3.3 5.9-6.6 11.9-9.9 17.8-.2.2-.3.3-.4.5zm32.2 0c-1-1.7-1.9-3.4-2.8-5.1-2.8-4.9-5.5-9.9-8.3-14.8-.3-.5-.4-1.1-.4-1.6V3.8c0-1.3 1-2.3 2.3-2.3 1 0 2.1 0 3.1.1 1.6.2 2.9 1.1 3.7 2.5C41.9 9.8 45 15.4 48.2 21c.8 1.5.9 3.1.1 4.6-2.3 4.3-4.7 8.6-7.1 12.8 0 .1-.1.1-.2.2zm-16.1 6.5h-9.8c-1.9 0-3.4-1-4.3-2.7-.7-1.4-.7-3 .1-4.4 1.4-2.6 3-5.1 4.5-7.7.1-.1.4-.2.6-.2h17.9c.3 0 .5.1.6.3l4.2 7.2c1.4 2.3.9 5.1-1 6.5-.9.7-1.9 1-3 1h-9.8zM67.6 31.3L65.7 37c-.1.3-.4.5-.9.6-.5.1-1.2.2-2.1.2-.5 0-.9 0-1.1-.1-.3 0-.5-.1-.6-.2-.1-.1-.2-.2-.2-.4 0-.1 0-.3.1-.5l2.1-5.4c-.2-.1-.3-.2-.4-.3-.1-.1-.2-.3-.3-.5l-5.5-14.7c-.2-.4-.2-.7-.2-1 0-.2.1-.4.2-.5.1-.1.4-.2.7-.3.3 0 .8-.1 1.4-.1h1.2c.3 0 .5.1.7.1.2.1.3.2.4.3.1.1.2.4.3.6l3.8 10.7h.1l3.4-10.9c.1-.3.2-.5.3-.6.1-.1.3-.2.6-.2s.7-.1 1.4-.1c.5 0 .9 0 1.3.1.3 0 .6.1.8.3s.2.3.2.5 0 .5-.1.8l-5.7 15.9zm22-8.8c0 1.4-.2 2.6-.5 3.7-.4 1.1-.9 2.1-1.6 2.9s-1.6 1.4-2.7 1.9c-1.1.4-2.4.7-3.9.7-1.4 0-2.7-.2-3.7-.6-1.1-.4-1.9-1-2.6-1.7-.7-.8-1.2-1.7-1.5-2.8-.3-1.1-.5-2.4-.5-3.8s.2-2.6.5-3.7c.4-1.1.9-2.1 1.6-2.9.7-.8 1.6-1.4 2.7-1.9 1.1-.4 2.4-.7 3.8-.7s2.7.2 3.7.6c1.1.4 1.9 1 2.6 1.7.7.8 1.2 1.7 1.5 2.8.5 1.1.6 2.4.6 3.8zm-4.6.2c0-.8-.1-1.5-.2-2.2s-.3-1.2-.6-1.7-.7-.9-1.2-1.1c-.5-.3-1.1-.4-1.9-.4-.7 0-1.3.1-1.8.4s-.9.6-1.2 1.1c-.3.5-.6 1-.7 1.7s-.2 1.4-.2 2.3c0 .8.1 1.5.2 2.2s.3 1.2.6 1.7.7.9 1.2 1.1c.5.3 1.1.4 1.9.4.7 0 1.3-.1 1.8-.4.5-.2.9-.6 1.2-1.1.3-.5.6-1 .7-1.7s.2-1.4.2-2.3zm20.8-6.9c0 .6-.1 1-.2 1.3-.1.3-.3.4-.5.4h-1.9c.3.3.5.6.6 1 .1.4.2.7.2 1.1 0 .9-.2 1.8-.5 2.5s-.8 1.3-1.3 1.8-1.3.9-2.1 1.1c-.8.3-1.7.4-2.7.4-.5 0-1-.1-1.5-.2s-.8-.3-1.1-.4c-.1.2-.3.3-.4.6-.1.2-.2.5-.2.7 0 .3.2.6.5.9.3.2.7.3 1.3.4l3.9.1c.9 0 1.7.2 2.4.4s1.3.5 1.8.9.9.9 1.1 1.4.4 1.2.4 1.9c0 .8-.2 1.5-.5 2.2-.3.7-.9 1.3-1.6 1.8-.7.5-1.6.9-2.6 1.2-1 .3-2.3.4-3.7.4-1.4 0-2.5-.1-3.5-.3s-1.7-.4-2.3-.8c-.6-.4-1.1-.8-1.3-1.4-.3-.5-.4-1.1-.4-1.7 0-.4.1-.8.2-1.1.1-.4.3-.7.4-1 .2-.3.4-.6.7-.9.3-.3.6-.6 1-.9-.5-.3-.9-.6-1.2-1.1-.3-.5-.4-1-.4-1.5 0-.7.2-1.3.5-1.9.3-.6.7-1.1 1.3-1.6-.4-.4-.8-.9-1-1.5-.3-.6-.4-1.3-.4-2.2 0-.9.2-1.8.5-2.5s.8-1.4 1.4-1.9c.6-.5 1.3-.9 2.1-1.2.8-.3 1.7-.4 2.7-.4.5 0 1 0 1.4.1.5.1.9.1 1.3.3h5.1c.2 0 .4.1.5.4-.1.1 0 .6 0 1.2zM101 32.3c0-.5-.2-.9-.6-1.2s-1-.4-1.8-.5l-3.2-.1c-.3.2-.6.4-.7.7-.2.2-.3.4-.4.6-.2.2-.3.4-.3.6 0 .2-.1.4-.1.6 0 .6.3 1.1.9 1.4.6.3 1.5.5 2.6.5.7 0 1.3-.1 1.7-.2.5-.1.8-.3 1.1-.5.3-.2.5-.5.6-.8.2-.5.2-.7.2-1.1zm-1-12.7c0-.9-.2-1.5-.7-2s-1.2-.7-2-.7c-.4 0-.8.1-1.2.2-.3.1-.6.4-.8.6-.2.3-.4.6-.5.9s-.2.7-.2 1.1c0 .8.2 1.5.7 1.9s1.1.7 2 .7c.5 0 .8-.1 1.2-.2.3-.1.6-.3.8-.6.2-.3.4-.5.5-.9.1-.3.2-.7.2-1zm22.1 11.1c0 .1 0 .2-.1.3-.1.1-.2.2-.3.2-.1.1-.3.1-.6.1h-1.9c-.2 0-.4-.1-.6-.1-.1-.1-.2-.1-.3-.2-.1-.1-.1-.2-.1-.3v-1.8c-.9 1-1.8 1.7-2.7 2.1-.9.5-1.9.7-2.8.7-1.1 0-2-.2-2.8-.5-.7-.4-1.3-.8-1.8-1.5s-.8-1.3-1-2.2c-.2-.8-.3-1.8-.3-3.1v-9.8c0-.1 0-.2.1-.3.1-.1.2-.2.4-.2.2-.1.4-.1.7-.1h2.2c.3 0 .5.1.7.1.2.1.3.1.4.2.1.1.1.2.1.3v9c0 .8.1 1.5.2 1.9.1.4.3.8.5 1.1s.5.6.8.7.7.3 1.2.3c.6 0 1.1-.2 1.7-.6s1.2-1 1.9-1.8V14.7c0-.1 0-.2.1-.3.1-.1.2-.2.4-.2.2-.1.4-.1.7-.1h2.2c.3 0 .5.1.7.1.2.1.3.1.4.2s.1.2.1.3v16zM135 16.2v1.1c0 .3-.1.5-.1.6 0 .2-.1.3-.2.3-.1.1-.2.1-.3.1-.1 0-.2 0-.3-.1-.1 0-.3-.1-.4-.1-.1 0-.3-.1-.5-.1s-.4-.1-.6-.1c-.3 0-.5.1-.8.2-.3.1-.5.3-.8.5-.3.2-.5.5-.8.9s-.6.8-.9 1.3v10c0 .1 0 .2-.1.3-.1.1-.2.2-.4.2-.2.1-.4.1-.7.1h-2.2c-.3 0-.5-.1-.7-.1-.2-.1-.3-.1-.4-.2-.1-.1-.1-.2-.1-.3v-16c0-.1 0-.2.1-.3.1-.1.2-.2.3-.2.2-.1.4-.1.6-.1h1.8c.3 0 .4.1.6.1s.2.1.3.2.1.2.1.3v2c.4-.6.8-1.1 1.2-1.5.4-.4.7-.7 1.1-.9.3-.2.7-.4 1-.5.3-.1.7-.1 1-.1h.5c.2 0 .4 0 .6.1.2 0 .4.1.5.1.1.1.2.1.3.2.1.1.1.1.1.2s.1.2.1.3 0 .3.1.6v.9z"/><path d="M145.4 29.1c0 .5 0 .9-.1 1.2-.1.3-.2.5-.3.6-.1.1-.3.2-.5.3-.2.1-.5.2-.7.2-.3.1-.6.1-.9.2-.3 0-.7.1-1 .1-.9 0-1.7-.1-2.3-.3-.7-.2-1.2-.6-1.6-1-.4-.5-.7-1.1-.9-1.8-.2-.7-.3-1.6-.3-2.5v-8.2h-1.9c-.2 0-.4-.1-.5-.4-.1-.3-.2-.7-.2-1.4v-.9c0-.3.1-.4.1-.6.1-.1.1-.2.2-.3.1-.1.2-.1.3-.1h1.9v-3.6c0-.1 0-.2.1-.3.1-.1.2-.2.4-.2.2-.1.4-.1.7-.1h2.2c.3 0 .5.1.7.1.2.1.3.1.4.2.1.1.1.2.1.3v3.6h3.5c.1 0 .2 0 .3.1.1.1.2.2.2.3.1.1.1.3.1.6v.9c0 .7-.1 1.1-.2 1.4-.1.3-.3.4-.5.4h-3.5v7.5c0 .9.1 1.5.4 2 .3.4.8.7 1.5.7.2 0 .5 0 .6-.1.2 0 .4-.1.5-.1.1-.1.3-.1.4-.1.1 0 .2-.1.3-.1.1 0 .1 0 .2.1.1 0 .1.1.2.3 0 .1.1.3.1.5v.5z"/></svg>