<svg class="fill-current text-gray-7" xmlns="http://www.w3.org/2000/svg" viewBox="0 0 47.1 43.1"><path d="M7.7 36.7c-.1-.1-.2-.2-.2-.3C5.2 32.2 2.9 28.1.6 24c-.9-1.6-.9-3.2 0-4.8C3.7 13.6 6.9 8 10 2.5 11 .8 12.6 0 14.6 0h1.9c1.6 0 2.6.9 2.6 2.6v10.8c0 3.4.1 2.5-1.4 5.2-3.3 5.9-6.5 11.7-9.8 17.6 0 .1-.1.3-.2.5zM39.5 36.7c-1-1.7-1.9-3.4-2.8-5-2.7-4.9-5.5-9.7-8.2-14.6-.3-.5-.4-1-.4-1.6V2.3C28 1 29 0 30.3 0c1 0 2.1 0 3.1.1 1.6.2 2.9 1.1 3.7 2.5 3.1 5.6 6.3 11.1 9.4 16.7.8 1.5.9 3 .1 4.5-2.3 4.2-4.6 8.4-7 12.7 0 0-.1 0-.1.2zM23.5 43.1h-9.7c-1.9 0-3.4-1-4.2-2.7-.6-1.5-.6-3 .1-4.4 1.4-2.6 2.9-5.1 4.5-7.6.1-.1.4-.2.6-.2H32.4c.3 0 .5.1.6.3 1.4 2.4 2.8 4.7 4.2 7.1 1.3 2.3.9 5-1 6.4-.9.7-1.9 1-3 1-3.3.1-6.5.1-9.7.1z"/></svg>