<svg class="fill-current text-gray-7" height="512" viewBox="0 0 24 24" width="512" xmlns="http://www.w3.org/2000/svg"><path d="M1.001 7.5a1 1 0 001-1V5c0-.552.449-1 1-1h1.5a1 1 0 100-2h-1.5c-1.654 0-3 1.346-3 3v1.5a1 1 0 001 1zm20-5.5h-1.5a1 1 0 100 2h1.5c.551 0 1 .448 1 1v1.5a1 1 0 102 0V5c0-1.654-1.346-3-3-3zm-21 17c0 1.654 1.346 3 3 3h1.5a1 1 0 100-2h-1.5c-.551 0-1-.448-1-1v-1.5a1 1 0 10-2 0V19zm23-2.5a1 1 0 00-1 1V19c0 .552-.449 1-1 1h-1.5a1 1 0 100 2h1.5c1.654 0 3-1.346 3-3v-1.5a1 1 0 00-1-1zM12 18.07c3.85 0 7.13-2.42 7.98-5.89.03-.12.03-.24 0-.36-.85-3.47-4.13-5.89-7.98-5.89s-7.13 2.42-7.98 5.89c-.03.12-.03.24 0 .36.85 3.47 4.13 5.89 7.98 5.89zM12 9c1.65 0 3 1.35 3 3s-1.35 3-3 3-3-1.35-3-3 1.35-3 3-3z"/></svg>