<svg class="fill-current text-gray-7" xmlns="http://www.w3.org/2000/svg" viewBox="0 0 512 512"><path d="M62.497 342.113l-34.971 19.603a216.986 216.986 0 0040.64 51.979l27.471-29.198a176.917 176.917 0 01-33.14-42.384zM124.175 406.347l-21.011 34.141a215.16 215.16 0 0060.865 25.592l9.684-38.901a175.134 175.134 0 01-49.538-20.832zM242.129 430.62a178.505 178.505 0 01-25.127 1.775h-.517c-2.397 0-4.822-.049-7.207-.145l-1.609 40.059c2.92.116 5.886.176 8.821.176h.519c10.298 0 20.654-.732 30.779-2.176l-5.659-39.689zM301.514 410.867a176.088 176.088 0 01-24.549 11.076l13.631 37.701a216.331 216.331 0 0030.159-13.606l-19.241-35.171zM350.296 371.52a177.923 177.923 0 01-19.179 18.982l25.954 30.554a218.315 218.315 0 0023.51-23.269l-30.285-26.267zM483.649 237.302L432.97 287.99V256c0-57.824-22.518-112.189-63.407-153.078-40.888-40.888-95.253-63.407-153.078-63.407-57.824 0-112.189 22.518-153.078 63.406S0 198.175 0 256c0 22.248 3.366 44.193 10.004 65.225l38.231-12.068C42.83 292.034 40.09 274.149 40.09 256c0-97.265 79.13-176.395 176.395-176.395S392.879 158.735 392.879 256v31.662l-50.989-50.864-28.313 28.382 99.576 99.331L512 265.646l-28.351-28.344z"/></svg>