<?xml version="1.0" encoding="UTF-8" standalone="no"?>
<!-- Created with Inkscape (http://www.inkscape.org/) -->

<svg
   width="101.44285mm"
   height="118.40782mm"
   viewBox="0 0 101.44285 118.40782"
   version="1.1"
   id="svg5"
   inkscape:version="1.1.2 (0a00cf5339, 2022-02-04)"
   sodipodi:docname="run.svg"
   xmlns:inkscape="http://www.inkscape.org/namespaces/inkscape"
   xmlns:sodipodi="http://sodipodi.sourceforge.net/DTD/sodipodi-0.dtd"
   xmlns="http://www.w3.org/2000/svg"
   xmlns:svg="http://www.w3.org/2000/svg">
  <sodipodi:namedview
     id="namedview7"
     pagecolor="#ffffff"
     bordercolor="#666666"
     borderopacity="1.0"
     inkscape:pageshadow="2"
     inkscape:pageopacity="0.0"
     inkscape:pagecheckerboard="0"
     inkscape:document-units="mm"
     showgrid="false"
     inkscape:zoom="0.52560325"
     inkscape:cx="602.16522"
     inkscape:cy="277.77606"
     inkscape:window-width="1366"
     inkscape:window-height="709"
     inkscape:window-x="0"
     inkscape:window-y="0"
     inkscape:window-maximized="1"
     inkscape:current-layer="layer1" />
  <defs
     id="defs2" />
  <g
     inkscape:label="Layer 1"
     inkscape:groupmode="layer"
     id="layer1"
     transform="translate(54.234316,-75.102885)">
    <path
       style="fill:#000000;stroke-width:0.264583"
       d="m -43.323733,193.21806 c -3.61762,-0.82478 -7.51182,-3.84388 -9.26421,-7.18235 -1.74309,-3.32076 -1.64538,-0.25806 -1.64538,-51.56912 0,-39.346035 0.0584,-46.812826 0.3764,-48.154168 1.96037,-8.268195 10.43632,-13.147322 18.19813,-10.475634 0.83419,0.287139 18.37993,10.26256 38.9905195,22.167603 40.1603695,23.197339 39.6800765,22.895929 41.6133815,26.115219 1.730928,2.88229 2.240045,4.70508 2.261833,8.09802 0.01617,2.51864 -0.08481,3.34463 -0.586324,4.79566 -1.186561,3.43307 -3.261291,6.18812 -6.140929,8.15458 -0.800364,0.54656 -17.826301,11.33567 -37.8354115,23.9758 -24.8701195,15.71092 -36.9243195,23.1801 -38.0999995,23.60799 -2.17682,0.79227 -5.55927,0.99278 -7.86801,0.4664 z"
       id="path117" />
  </g>
</svg>
