<svg class="fill-current text-gray-4" viewBox="-32 0 512 512" xmlns="http://www.w3.org/2000/svg"><path d="M384.012 256c0 88.367-71.633 160-160 160-88.364 0-160-71.633-160-160s71.636-160 160-160c88.367 0 160 71.633 160 160zM202.68 21.332v36.504c0 11.797 9.554 21.332 21.332 21.332 11.777 0 21.332-9.535 21.332-21.332V21.332C245.344 9.535 235.789 0 224.012 0c-11.778 0-21.332 9.535-21.332 21.332zM30.969 122.219c-10.52-5.29-23.34-1.09-28.676 9.43-5.309 10.515-1.086 23.359 9.43 28.671l30.933 15.637a21.28 21.28 0 009.602 2.281c7.785 0 15.297-4.265 19.07-11.71 5.313-10.516 1.11-23.36-9.406-28.673zm11.687 213.824L11.723 351.68c-10.516 5.312-14.72 18.156-9.407 28.672 3.754 7.445 11.266 11.71 19.07 11.71 3.223 0 6.532-.722 9.602-2.28l30.934-15.637c10.516-5.313 14.719-18.157 9.406-28.672-5.332-10.54-18.176-14.762-28.672-9.43zm181.356 96.789c-11.778 0-21.332 9.535-21.332 21.332v36.504c0 11.797 9.554 21.332 21.332 21.332 11.777 0 21.332-9.535 21.332-21.332v-36.504c0-11.797-9.555-21.332-21.332-21.332zM436.3 351.68l-30.933-15.637c-10.496-5.313-23.34-1.09-28.672 9.406-5.312 10.52-1.11 23.363 9.407 28.672l30.933 15.64a21.331 21.331 0 009.602 2.282c7.785 0 15.297-4.266 19.07-11.711 5.336-10.496 1.11-23.34-9.406-28.652zm-19.241-229.461l-30.934 15.636c-10.52 5.313-14.723 18.157-9.41 28.672 3.758 7.446 11.265 11.711 19.074 11.711 3.219 0 6.527-.722 9.598-2.281l30.933-15.637c10.52-5.312 14.723-18.156 9.41-28.672-5.335-10.52-18.175-14.761-28.671-9.43zm0 0"/></svg>