<svg width="176.015" height="162.086" viewBox="0 0 46.571 42.885" xmlns="http://www.w3.org/2000/svg"><path d="M10.222 17.184L21.556 5.537c2.991-3.073 7.807-3.073 10.798 0L44.327 17.84c2.991 3.074 2.991 8.022 0 11.095L32.993 40.58c-2.991 3.074-7.807 3.074-10.798 0L10.222 28.278c-2.991-3.073-2.991-8.021 0-11.094z" fill="#0cf"/><path style="font-variation-settings:'wght' 300" d="M14.368 20.664h10.513a2.389 2.389 0 012.394 2.395 2.389 2.389 0 01-2.394 2.394H14.368a2.389 2.389 0 01-2.394-2.394 2.389 2.389 0 012.394-2.395z" fill="#fff"/><path d="M19.892.918c-1.951 0-3.903.768-5.398 2.305L3.159 14.869c-2.991 3.073-2.991 8.022 0 11.095l11.973 12.302c2.99 3.073 7.807 3.073 10.798 0l4.759-4.89-.001-2.34c0-5.082.008-6.046.049-6.22.253-1.067 1.347-1.697 2.35-1.352.102.035 2.16 1.205 4.64 2.635 2.518-3.088 2.365-7.668-.462-10.574L25.29 3.223C23.796 1.686 21.844.918 19.892.918z" fill="none" stroke="#4d4d4d" stroke-width="1.83598514"/><path style="font-variation-settings:'wght' 300" d="M6.81 18.758h11.328c1.1 0 1.986.886 1.986 1.986s-.886 1.987-1.986 1.987H6.809c-1.1 0-1.986-.886-1.986-1.987 0-1.1.886-1.986 1.986-1.986z" fill="none" stroke="#4d4d4d" stroke-width="1.83598514"/><path d="M34.086 39.275a1.563 1.563 0 01-.951-.738c-.18-.34-.17-.026-.17-5.294 0-4.04.007-4.807.04-4.944.2-.85 1.071-1.35 1.868-1.076.086.03 1.887 1.054 4.003 2.276 4.123 2.382 4.074 2.35 4.272 2.681.178.296.23.483.233.832.001.258-.009.343-.06.492a1.639 1.639 0 01-.631.837 882.84 882.84 0 01-3.885 2.462c-2.553 1.613-3.79 2.38-3.911 2.424-.224.081-.571.102-.808.048z" fill="#4d4d4d"/></svg>